<svg width="155" height="48" viewBox="0 0 155 48" fill="none" xmlns="http://www.w3.org/2000/svg">
<path fill-rule="evenodd" clip-rule="evenodd" d="M45.9502 0.989258V47.0434H47.0143V0.989258H45.9502ZM61.0467 16.8744V11.8487C61.0395 10.9872 61.04 10.0955 61.0467 9.24439V5.11685V4.31973L61.4946 4.74702C61.509 4.74776 61.515 4.74908 61.5156 4.75166C61.516 4.75367 61.5132 4.75645 61.5086 4.76033L61.6637 4.90833C61.6862 4.90229 61.6994 4.90087 61.7066 4.90677C61.7143 4.91314 61.7149 4.92809 61.7127 4.95502L61.8831 5.11765C61.9001 5.11633 61.9103 5.11762 61.9156 5.1234C61.9205 5.12872 61.9213 5.13784 61.9194 5.15224L62.0847 5.30993L62.0915 5.30799C62.1352 5.29547 62.1582 5.28886 62.1674 5.29732C62.1768 5.306 62.1716 5.33056 62.1591 5.3809L62.4925 5.69896C62.5318 5.68863 62.5528 5.68381 62.5615 5.69201C62.5701 5.70005 62.5668 5.72064 62.5574 5.76087L62.6948 5.89192C62.7263 5.88828 62.7434 5.88769 62.751 5.89586C62.7581 5.90349 62.757 5.91877 62.7519 5.94635L62.8806 6.06916C62.9246 6.0578 62.9469 6.05317 62.9555 6.06198C62.9639 6.07064 62.9589 6.0923 62.9479 6.13336L63.1022 6.28056C63.1317 6.27336 63.1481 6.27106 63.1557 6.27817C63.1632 6.28526 63.162 6.30169 63.1561 6.33193L63.2988 6.46811C63.3239 6.46299 63.3381 6.46202 63.3453 6.46866C63.3526 6.47544 63.3527 6.49014 63.3495 6.51644L63.4957 6.65588C63.5486 6.64154 63.5751 6.63443 63.5845 6.64406C63.5936 6.65342 63.5866 6.67862 63.5717 6.7284L63.7119 6.86211C63.7425 6.85598 63.7592 6.85443 63.7665 6.862C63.7735 6.86925 63.7717 6.88487 63.7651 6.91286L63.9152 7.05602C63.9331 7.05257 63.944 7.05259 63.95 7.05802C63.9562 7.06363 63.9572 7.07503 63.9554 7.09435L64.1073 7.23927C64.1528 7.22537 64.1762 7.21908 64.1852 7.22776C64.1942 7.23641 64.1889 7.25995 64.1769 7.30569L64.5153 7.62847C64.5547 7.61803 64.5752 7.61423 64.5831 7.6225C64.5909 7.63059 64.5866 7.65021 64.5761 7.68645L64.7417 7.84447C64.7592 7.84124 64.7699 7.84137 64.7755 7.84677C64.781 7.8521 64.7816 7.86255 64.7789 7.87995L64.9451 8.03852C64.9487 8.03927 64.9515 8.04062 64.9537 8.04264C64.9543 8.04319 64.9548 8.04379 64.9553 8.04444C64.9558 8.04512 64.9563 8.04587 64.9567 8.04667C64.9575 8.04804 64.9581 8.04957 64.9585 8.05129L65.1375 8.22197C65.1667 8.21413 65.183 8.21166 65.1904 8.21864C65.1978 8.22561 65.1962 8.24202 65.1898 8.27192L65.3485 8.42326C65.3754 8.41787 65.3906 8.41663 65.3977 8.42361C65.4046 8.43042 65.4039 8.44505 65.3988 8.4713L65.5428 8.60867C65.5658 8.60448 65.579 8.60416 65.5856 8.61061C65.5921 8.61699 65.5922 8.63002 65.5888 8.65252L65.7439 8.80047C65.7891 8.78752 65.8126 8.78142 65.8216 8.79018C65.8304 8.79878 65.8253 8.82172 65.8132 8.86658L65.9618 9.00836C65.9938 9.00331 66.0112 9.00198 66.0186 9.00996C66.0256 9.01739 66.0238 9.03291 66.0171 9.06103L66.141 9.17925C66.1864 9.16571 66.2095 9.16 66.2181 9.16868C66.2268 9.17733 66.2211 9.20027 66.2089 9.24401L66.3633 9.39133C66.397 9.38236 66.4154 9.37901 66.4232 9.38658C66.4309 9.39402 66.4284 9.41198 66.4201 9.4455L66.5628 9.5816C66.5823 9.5778 66.594 9.57764 66.6004 9.58337C66.607 9.58931 66.6078 9.60158 66.6059 9.6227L66.7539 9.76391C66.76 9.7619 66.7658 9.75997 66.7713 9.75814L66.7722 9.75786C66.8222 9.74123 66.8479 9.73269 66.8576 9.74158C66.8678 9.75095 66.8604 9.77965 66.8452 9.83857L66.8426 9.84857L66.9579 9.95853L66.9609 9.95788C67.0126 9.94678 67.0383 9.94127 67.0477 9.95118C67.0569 9.96092 67.0504 9.98552 67.0374 10.0343L67.1725 10.1632C67.1932 10.16 67.2052 10.1603 67.2113 10.1665C67.2172 10.1725 67.2174 10.1841 67.2145 10.2033L67.3808 10.3619C67.4243 10.3491 67.4473 10.343 67.4561 10.3515C67.4648 10.3598 67.4601 10.3821 67.448 10.426L67.5863 10.5579C67.6236 10.5513 67.6433 10.5491 67.6511 10.5577C67.6584 10.5658 67.6553 10.5832 67.6463 10.6152L67.7825 10.7451C67.8054 10.7401 67.8185 10.7396 67.8245 10.7459C67.8304 10.752 67.8297 10.7645 67.825 10.7856L68.0036 10.956C68.0391 10.9453 68.0587 10.9407 68.0665 10.9483C68.0741 10.9556 68.0707 10.9743 68.0602 11.01L68.1815 11.1257C68.2059 11.1193 68.2196 11.1181 68.226 11.1243C68.2324 11.1306 68.2314 11.1445 68.2263 11.1685L68.4135 11.347C68.4414 11.3398 68.4573 11.3375 68.464 11.3443C68.4704 11.3508 68.4684 11.3656 68.4607 11.3921L68.598 11.523C68.6412 11.5086 68.6639 11.5019 68.6729 11.5101C68.682 11.5184 68.6772 11.5417 68.6655 11.5874L68.7931 11.7091C68.8332 11.6973 68.854 11.6925 68.8625 11.7007C68.8711 11.7089 68.867 11.7302 68.8574 11.7704L69.0087 11.9148C69.0491 11.9037 69.0704 11.8989 69.0787 11.9073C69.0869 11.9154 69.0827 11.9359 69.0718 11.9749L69.2174 12.1138C69.2602 12.1036 69.2827 12.0991 69.2911 12.108C69.2991 12.1164 69.2944 12.1368 69.2824 12.1758L69.4071 12.2948C69.4503 12.2818 69.4725 12.2765 69.4808 12.2849C69.489 12.2932 69.4836 12.315 69.4712 12.3559L69.6255 12.5032C69.6625 12.4927 69.6824 12.4886 69.69 12.4964C69.6973 12.504 69.6932 12.5225 69.6819 12.5569L69.825 12.6935C69.8345 12.6926 69.8406 12.6938 69.8442 12.6976C69.8475 12.7011 69.8485 12.7068 69.8477 12.7151L70.0454 12.9038C70.066 12.897 70.0785 12.8951 70.0849 12.9004C70.0917 12.906 70.0918 12.9196 70.0875 12.9439L70.2353 13.0848C70.2663 13.0759 70.2831 13.0729 70.2899 13.0798C70.2964 13.0865 70.2934 13.1026 70.2845 13.1318L70.4461 13.2859C70.4589 13.2848 70.4671 13.2861 70.4718 13.2909C70.4761 13.2955 70.4773 13.3031 70.4761 13.3146L70.6 13.4327L70.6565 7.40603V5.98083C70.6537 5.67099 70.6525 5.45279 70.6565 5.29785V5.11685H70.6661C70.6778 4.99458 70.6995 4.94486 70.7374 4.91772C70.759 4.90222 70.7859 4.89408 70.8192 4.884C70.8826 4.86482 70.9692 4.83861 71.087 4.74142C71.1731 4.77848 71.2472 4.80858 71.3107 4.8344C71.4986 4.9108 71.5945 4.94982 71.6414 5.02112C71.6587 5.04746 71.6694 5.0782 71.6754 5.11685H71.8078V17.4723L71.1592 16.8501C71.1376 16.8578 71.1248 16.86 71.1185 16.8546C71.112 16.8489 71.1126 16.835 71.1177 16.8103L70.9172 16.618C70.9159 16.6178 70.9146 16.6175 70.9134 16.6171C70.9107 16.6163 70.9086 16.615 70.907 16.6132C70.9062 16.6123 70.9056 16.6113 70.9051 16.6102C70.9044 16.6087 70.9039 16.607 70.9037 16.605L70.5495 16.2653C70.5056 16.2801 70.4826 16.2862 70.4745 16.2779C70.4667 16.2697 70.4731 16.2478 70.4881 16.2064L69.9072 15.6492C69.901 15.6491 69.8966 15.6479 69.8937 15.645C69.8909 15.6423 69.8896 15.6381 69.8895 15.6322L69.3 15.0668C69.2941 15.0667 69.2897 15.0654 69.2868 15.0626C69.284 15.0598 69.2825 15.0556 69.2821 15.0497L68.2836 14.0919C68.2798 14.0913 68.2769 14.09 68.2747 14.0879C68.2726 14.0858 68.2712 14.083 68.2704 14.0793L67.8937 13.7179C67.8791 13.7204 67.8699 13.7199 67.8649 13.7151C67.8599 13.7103 67.859 13.7012 67.8609 13.6865L67.6758 13.5089C67.667 13.509 67.661 13.5074 67.6575 13.5036C67.6542 13.5001 67.6528 13.4948 67.6531 13.4871L66.8794 12.745C66.8703 12.7456 66.8642 12.7444 66.8604 12.7408C66.8565 12.7371 66.8549 12.7309 66.8551 12.7217L66.657 12.5317C66.6564 12.5313 66.6559 12.5309 66.6553 12.5305L66.655 12.5302C66.6548 12.53 66.6547 12.5298 66.6545 12.5297C66.654 12.5291 66.6536 12.5286 66.6532 12.528L66.2697 12.1602C66.2575 12.1617 66.2498 12.1606 66.2455 12.1563C66.2414 12.152 66.2405 12.1447 66.2419 12.1335L65.2602 11.1918C65.2467 11.1936 65.2382 11.1926 65.2335 11.1879C65.2289 11.1833 65.2279 11.1751 65.2293 11.1623L65.0327 10.9736C65.0299 10.9729 65.0276 10.9717 65.0259 10.9699C65.0243 10.9683 65.0231 10.9663 65.0223 10.9637L64.6401 10.5971C64.6267 10.599 64.6183 10.5981 64.6136 10.5935C64.609 10.5889 64.608 10.5807 64.6096 10.5678L63.4088 9.41604C63.4046 9.41557 63.4014 9.4143 63.3991 9.41212C63.3968 9.40991 63.3954 9.40678 63.3948 9.40259L62.9982 9.02217C62.9968 9.02149 62.9956 9.02064 62.9945 9.01961C62.9941 9.01921 62.9938 9.01879 62.9934 9.01834C62.993 9.0178 62.9927 9.01722 62.9923 9.01659L62.0589 8.12126C62.1418 9.52614 62.2939 14.6728 62.0431 16.4119V16.8744H61.9363C61.9325 16.8834 61.9286 16.8919 61.9247 16.8999L61.6572 16.8744H61.0467ZM70.648 13.4785C70.6493 13.4781 70.6506 13.4777 70.6519 13.4774L70.655 13.4764L70.6565 13.476V13.4867L70.648 13.4785ZM70.8679 5.11685H70.8701C70.8802 5.06699 70.8959 5.03998 70.9193 5.02696C70.9513 5.00922 70.9977 5.01747 71.064 5.02927C71.1489 5.04436 71.2663 5.06526 71.4278 5.04499L71.4278 5.03795C71.2659 5.05841 71.1482 5.03748 71.0632 5.02238C70.9969 5.01058 70.9505 5.00233 70.9185 5.02008C70.894 5.03368 70.878 5.06257 70.8679 5.11685ZM79.6157 15.9358C83.1287 17.3281 85.9192 14.8553 85.9192 14.8553C85.9192 14.8553 86.4475 15.175 86.3848 15.2876C86.0377 15.9108 83.6731 16.8976 82.8268 17.0832C81.4373 17.3881 79.8504 17.0466 78.5098 16.6281C76.0982 15.8751 74.7005 13.7801 74.7133 10.5991C74.7133 3.81573 84.8551 3.11736 86.1519 7.34033C85.9999 7.39357 85.8569 7.43929 85.7425 7.47586C85.571 7.53072 85.4638 7.56499 85.487 7.57317C85.2612 7.5003 85.1417 7.35172 84.978 7.14823C84.7345 6.84545 84.3933 6.42111 83.4586 5.94382C76.3426 3.44991 73.4497 13.492 79.6157 15.9358ZM133.023 16.0398C136.089 17.052 138.527 14.7116 139.137 12.4956C141.025 5.62574 131.733 2.51358 129.924 9.19662C129.023 12.5227 130.676 15.2646 133.023 16.0398ZM135.666 16.9192C126.95 18.2964 125.34 6.04502 133.348 4.83838L133.348 4.83824C137.275 4.2466 140.214 6.59722 140.903 9.78337C141.687 13.4019 138.593 16.4569 135.666 16.9192ZM87.9476 26.6266C87.9899 23.8801 85.672 23.7719 83.0856 23.7147L83.1774 29.1015C85.589 29.4241 87.909 29.1345 87.9476 26.6266ZM83.5682 29.9002C83.4395 29.8899 83.3549 29.8832 83.3256 29.8861V34.8731H81.7295V22.841L84.0848 22.841C84.2202 22.841 84.3586 22.8397 84.499 22.8385C85.2146 22.832 85.9809 22.825 86.649 22.9814C88.0045 23.2985 89.2627 24.1793 89.4772 25.6956C90.1464 30.4245 84.8091 29.9991 83.5682 29.9002ZM110.169 13.8113C110.154 13.7971 110.142 13.7867 110.135 13.7891C110.117 13.7954 110.128 13.8913 110.171 14.2419L110.172 14.2453C110.184 14.3473 110.199 14.4708 110.217 14.6197C110.236 14.7799 110.59 15.3771 110.648 15.4504C110.959 15.8454 111.401 16.1913 112.043 16.4782C116.942 18.6692 121.303 13.8381 117.454 11.0315C116.92 10.6421 116.081 10.3318 115.21 10.0094C113.506 9.37832 111.676 8.7011 111.76 7.29455C111.829 6.14326 113.167 5.41972 114.636 5.46101C116.48 5.51287 116.887 6.3509 117.187 6.96691L117.187 6.96699L117.187 6.96709L117.187 6.9672L117.187 6.96732C117.266 7.12949 117.337 7.27624 117.425 7.38919L118.306 7.3793C118.432 3.85115 109.581 3.53956 110.589 8.47753C110.831 9.65793 112.09 10.3838 113.077 10.8183C113.48 10.9957 113.884 11.1371 114.28 11.2756C115.045 11.5431 115.778 11.7998 116.415 12.2846C119.005 14.2563 116.587 17.1144 113.046 16.044C112.336 15.8293 111.919 15.5367 111.634 15.0747C111.41 14.7124 111.357 14.4545 111.319 14.268C111.254 13.9468 111.231 13.8372 110.455 13.7711L110.454 13.771C110.315 13.9452 110.22 13.8577 110.169 13.8113ZM111.125 27.0283C110.535 28.2895 109.917 29.6111 109.766 30.4951L114.685 30.4836C114.421 29.888 114.187 29.2994 113.94 28.6795L113.94 28.6792L113.94 28.6791L113.94 28.6789L113.94 28.6784L113.94 28.6783L113.94 28.6777L113.939 28.6777C113.479 27.5207 112.975 26.2548 112.155 24.6315C111.94 25.2853 111.54 26.1419 111.125 27.0283ZM107.204 34.9003C107.119 34.8883 107.038 34.8768 106.968 34.8731C107.315 34.0865 108.158 32.0474 108.831 30.418C109.125 29.7057 109.387 29.0718 109.561 28.655C109.983 27.6447 110.41 26.7167 110.79 25.8922C111.324 24.7307 111.764 23.7743 111.963 23.0822L113.053 23.0823C113.13 23.1843 113.194 23.3811 113.26 23.5878C113.308 23.7365 113.357 23.8902 113.414 24.0175L116.976 31.6353C117.071 31.846 117.195 32.1067 117.331 32.3915C117.728 33.2272 118.225 34.2713 118.373 34.8731L116.864 34.9279L115.153 31.2969L109.329 31.284C109.045 31.9324 108.802 32.5662 108.59 33.1213L108.59 33.1218L108.589 33.1221L108.589 33.1224L108.589 33.1228L108.589 33.1236L108.588 33.1247L108.588 33.1248L108.588 33.1253L108.588 33.1256L108.588 33.1258L108.588 33.1259C108.269 33.959 108.018 34.6139 107.799 34.8731C107.672 34.9666 107.426 34.9318 107.204 34.9003ZM87.7269 39.9002H88.3393V42.6741H87.7269V39.9002ZM88.0355 39.4431C87.9245 39.4431 87.8314 39.4067 87.7563 39.334C87.6812 39.2578 87.6437 39.1643 87.6437 39.0535C87.6437 38.9427 87.6812 38.8509 87.7563 38.7782C87.8314 38.702 87.9245 38.6639 88.0355 38.6639C88.1466 38.6639 88.2397 38.7002 88.3148 38.773C88.3899 38.8422 88.4274 38.9305 88.4274 39.0379C88.4274 39.1522 88.3899 39.2491 88.3148 39.3288C88.2429 39.405 88.1498 39.4431 88.0355 39.4431ZM57.7092 39.0379V42.6741H57.1851L55.2942 40.2119V42.6741H54.6623V39.0379H55.1864L57.0773 41.5001V39.0379H57.7092ZM61.0284 41.3027C61.0284 41.3477 61.0252 41.4118 61.0186 41.4949H58.9661C59.002 41.6992 59.0951 41.862 59.2453 41.9832C59.3988 42.101 59.5882 42.1598 59.8136 42.1598C60.101 42.1598 60.3377 42.0594 60.5239 41.8585L60.8521 42.2585C60.7345 42.4074 60.5859 42.52 60.4063 42.5962C60.2267 42.6724 60.0242 42.7105 59.7989 42.7105C59.5115 42.7105 59.2584 42.6498 59.0396 42.5286C58.8208 42.4074 58.6509 42.2395 58.5301 42.0248C58.4125 41.8066 58.3538 41.5607 58.3538 41.2871C58.3538 41.017 58.4109 40.7746 58.5252 40.5599C58.6428 40.3417 58.8044 40.172 59.0102 40.0508C59.2159 39.9296 59.4478 39.869 59.7058 39.869C59.9605 39.869 60.1875 39.9296 60.3867 40.0508C60.5892 40.1686 60.7459 40.3365 60.857 40.5547C60.9713 40.7694 61.0284 41.0188 61.0284 41.3027ZM59.7058 40.3885C59.5098 40.3885 59.3433 40.4508 59.2061 40.5755C59.0722 40.6967 58.9906 40.8595 58.9612 41.0638H60.4455C60.4194 40.8629 60.3394 40.7002 60.2055 40.5755C60.0716 40.4508 59.905 40.3885 59.7058 40.3885ZM62.5393 41.7131L63.2104 42.6741H63.9011L62.8773 41.256L63.857 39.9002H63.1957L62.554 40.8092L61.9123 39.9002H61.2313L62.2062 41.2664L61.1873 42.6741H61.8633L62.5393 41.7131ZM65.9255 42.5234C65.8536 42.5858 65.7654 42.6325 65.6609 42.6637C65.5597 42.6949 65.4519 42.7105 65.3376 42.7105C65.0502 42.7105 64.8282 42.6308 64.6714 42.4715C64.5146 42.3122 64.4363 42.0802 64.4363 41.7754V40.4404H64.0052V39.921H64.4363V39.2872H65.0486V39.921H65.7491V40.4404H65.0486V41.7598C65.0486 41.8949 65.0796 41.9988 65.1417 42.0715C65.2037 42.1408 65.2935 42.1754 65.4111 42.1754C65.5483 42.1754 65.6626 42.1373 65.754 42.0611L65.9255 42.5234ZM70.3793 42.2533V39.9002H69.7964V40.269C69.6919 40.1339 69.5612 40.0335 69.4045 39.9677C69.251 39.9019 69.0795 39.869 68.8901 39.869C68.6419 39.869 68.4166 39.9244 68.2141 40.0352C68.0149 40.1461 67.8565 40.3036 67.7389 40.508C67.6246 40.7088 67.5675 40.9408 67.5675 41.204C67.5675 41.4672 67.6246 41.701 67.7389 41.9053C67.8565 42.1096 68.0149 42.2689 68.2141 42.3832C68.4166 42.494 68.6419 42.5494 68.8901 42.5494C69.0697 42.5494 69.2346 42.5183 69.3849 42.4559C69.5351 42.3936 69.6625 42.3018 69.767 42.1806V42.326C69.767 42.61 69.7 42.8213 69.5661 42.9598C69.4322 43.0983 69.2216 43.1676 68.9342 43.1676C68.7546 43.1676 68.5766 43.1364 68.4002 43.0741C68.2272 43.0152 68.0835 42.9355 67.9692 42.8351L67.6948 43.3234C67.8418 43.4515 68.0279 43.5485 68.2533 43.6143C68.4786 43.6836 68.717 43.7182 68.9685 43.7182C69.909 43.7182 70.3793 43.2299 70.3793 42.2533ZM69.5514 41.7806C69.4045 41.9261 69.2151 41.9988 68.9832 41.9988C68.7481 41.9988 68.5554 41.9261 68.4051 41.7806C68.2582 41.6317 68.1847 41.4395 68.1847 41.204C68.1847 40.972 68.2582 40.7833 68.4051 40.6378C68.5554 40.4924 68.7481 40.4196 68.9832 40.4196C69.2151 40.4196 69.4045 40.4924 69.5514 40.6378C69.7017 40.7833 69.7768 40.972 69.7768 41.204C69.7768 41.4395 69.7017 41.6317 69.5514 41.7806ZM73.6435 41.3027C73.6435 41.3477 73.6402 41.4118 73.6337 41.4949H71.5811C71.6171 41.6992 71.7101 41.862 71.8604 41.9832C72.0138 42.101 72.2033 42.1598 72.4286 42.1598C72.716 42.1598 72.9528 42.0594 73.1389 41.8585L73.4671 42.2585C73.3495 42.4074 73.201 42.52 73.0213 42.5962C72.8417 42.6724 72.6393 42.7105 72.4139 42.7105C72.1265 42.7105 71.8734 42.6498 71.6546 42.5286C71.4358 42.4074 71.266 42.2395 71.1452 42.0248C71.0276 41.8066 70.9688 41.5607 70.9688 41.2871C70.9688 41.017 71.0259 40.7746 71.1403 40.5599C71.2578 40.3417 71.4195 40.172 71.6252 40.0508C71.831 39.9296 72.0628 39.869 72.3208 39.869C72.5756 39.869 72.8025 39.9296 73.0017 40.0508C73.2042 40.1686 73.361 40.3365 73.472 40.5547C73.5863 40.7694 73.6435 41.0188 73.6435 41.3027ZM72.3208 40.3885C72.1249 40.3885 71.9583 40.4508 71.8212 40.5755C71.6873 40.6967 71.6056 40.8595 71.5762 41.0638H73.0605C73.0344 40.8629 72.9544 40.7002 72.8205 40.5755C72.6866 40.4508 72.52 40.3885 72.3208 40.3885ZM76.5095 40.1755C76.3103 39.9712 76.0458 39.869 75.716 39.869C75.5233 39.869 75.3502 39.9019 75.1967 39.9677C75.0432 40.0335 74.9158 40.1305 74.8146 40.2586V39.9002H74.2317V42.6741H74.844V41.2716C74.844 41.0014 74.9093 40.7954 75.0399 40.6534C75.1706 40.508 75.3486 40.4352 75.5739 40.4352C75.7731 40.4352 75.9266 40.4976 76.0344 40.6222C76.1421 40.7434 76.196 40.9253 76.196 41.1677V42.6741H76.8084V41.0845C76.8084 40.6828 76.7087 40.3798 76.5095 40.1755ZM80.0682 41.3027C80.0682 41.3477 80.0649 41.4118 80.0584 41.4949H78.0059C78.0418 41.6992 78.1349 41.862 78.2851 41.9832C78.4386 42.101 78.628 42.1598 78.8533 42.1598C79.1407 42.1598 79.3775 42.0594 79.5636 41.8585L79.8918 42.2585C79.7743 42.4074 79.6257 42.52 79.4461 42.5962C79.2664 42.6724 79.064 42.7105 78.8386 42.7105C78.5512 42.7105 78.2981 42.6498 78.0793 42.5286C77.8605 42.4074 77.6907 42.2395 77.5699 42.0248C77.4523 41.8066 77.3935 41.5607 77.3935 41.2871C77.3935 41.017 77.4507 40.7746 77.565 40.5599C77.6825 40.3417 77.8442 40.172 78.0499 40.0508C78.2557 39.9296 78.4876 39.869 78.7456 39.869C79.0003 39.869 79.2273 39.9296 79.4265 40.0508C79.629 40.1686 79.7857 40.3365 79.8967 40.5547C80.0111 40.7694 80.0682 41.0188 80.0682 41.3027ZM78.7456 40.3885C78.5496 40.3885 78.3831 40.4508 78.2459 40.5755C78.112 40.6967 78.0303 40.8595 78.001 41.0638H79.4853C79.4591 40.8629 79.3791 40.7002 79.2452 40.5755C79.1113 40.4508 78.9448 40.3885 78.7456 40.3885ZM82.1701 39.869C81.7259 39.869 81.4157 40.0145 81.2393 40.3054V39.9002H80.6564V42.6741H81.2687V41.3287C81.2687 41.0517 81.3357 40.8404 81.4696 40.695C81.6035 40.546 81.7896 40.4716 82.028 40.4716C82.0705 40.4716 82.1178 40.4768 82.1701 40.4872V39.869ZM83.6745 39.869C84.0599 39.869 84.3538 39.9677 84.5563 40.1651C84.762 40.359 84.8649 40.6534 84.8649 41.0482V42.6741H84.2868V42.3364C84.2117 42.4576 84.104 42.5512 83.9635 42.617C83.8264 42.6793 83.6598 42.7105 83.4639 42.7105C83.2679 42.7105 83.0965 42.6758 82.9495 42.6066C82.8025 42.5338 82.6882 42.4351 82.6066 42.3105C82.5282 42.1823 82.489 42.0386 82.489 41.8793C82.489 41.63 82.5756 41.4309 82.7486 41.2819C82.925 41.1296 83.201 41.0534 83.5765 41.0534H84.2525V41.0118C84.2525 40.8179 84.197 40.669 84.086 40.5651C83.9782 40.4612 83.8166 40.4093 83.601 40.4093C83.4541 40.4093 83.3087 40.4335 83.165 40.482C83.0246 40.5305 82.9054 40.598 82.8074 40.6846L82.5674 40.2119C82.7046 40.101 82.8695 40.0162 83.0622 39.9573C83.2549 39.8985 83.459 39.869 83.6745 39.869ZM83.5912 42.2377C83.7447 42.2377 83.8802 42.2014 83.9978 42.1287C84.1187 42.0525 84.2036 41.9451 84.2525 41.8066V41.4845H83.6206C83.2679 41.4845 83.0916 41.6075 83.0916 41.8533C83.0916 41.9711 83.1357 42.0646 83.2238 42.1339C83.312 42.2031 83.4345 42.2377 83.5912 42.2377ZM86.9587 42.6637C87.0632 42.6325 87.1514 42.5858 87.2232 42.5234L87.0518 42.0611C86.9603 42.1373 86.846 42.1754 86.7088 42.1754C86.5913 42.1754 86.5015 42.1408 86.4394 42.0715C86.3774 41.9988 86.3463 41.8949 86.3463 41.7598V40.4404H87.0469V39.921H86.3463V39.2872H85.734V39.921H85.3029V40.4404H85.734V41.7754C85.734 42.0802 85.8124 42.3122 85.9691 42.4715C86.1259 42.6308 86.348 42.7105 86.6354 42.7105C86.7497 42.7105 86.8574 42.6949 86.9587 42.6637ZM89.6034 42.5286C89.8157 42.6498 90.0541 42.7105 90.3186 42.7105C90.5864 42.7105 90.8265 42.6498 91.0387 42.5286C91.251 42.4074 91.4159 42.2395 91.5335 42.0248C91.6543 41.8066 91.7148 41.5607 91.7148 41.2871C91.7148 41.0136 91.6543 40.7694 91.5335 40.5547C91.4159 40.34 91.251 40.172 91.0387 40.0508C90.8265 39.9296 90.5864 39.869 90.3186 39.869C90.0541 39.869 89.8157 39.9296 89.6034 40.0508C89.3912 40.172 89.2246 40.34 89.1038 40.5547C88.9862 40.7694 88.9274 41.0136 88.9274 41.2871C88.9274 41.5607 88.9862 41.8066 89.1038 42.0248C89.2246 42.2395 89.3912 42.4074 89.6034 42.5286ZM90.8771 41.9157C90.7301 42.075 90.544 42.1546 90.3186 42.1546C90.0933 42.1546 89.9072 42.075 89.7602 41.9157C89.6165 41.7564 89.5446 41.5469 89.5446 41.2871C89.5446 41.0274 89.6165 40.8179 89.7602 40.6586C89.9072 40.4993 90.0933 40.4196 90.3186 40.4196C90.544 40.4196 90.7301 40.4993 90.8771 40.6586C91.024 40.8179 91.0975 41.0274 91.0975 41.2871C91.0975 41.5469 91.024 41.7564 90.8771 41.9157ZM93.7846 39.869C94.1144 39.869 94.379 39.9712 94.5782 40.1755C94.7774 40.3798 94.877 40.6828 94.877 41.0845V42.6741H94.2647V41.1677C94.2647 40.9253 94.2108 40.7434 94.103 40.6222C93.9952 40.4976 93.8418 40.4352 93.6425 40.4352C93.4172 40.4352 93.2392 40.508 93.1086 40.6534C92.978 40.7954 92.9126 41.0014 92.9126 41.2716V42.6741H92.3003V39.9002H92.8832V40.2586C92.9845 40.1305 93.1118 40.0335 93.2653 39.9677C93.4188 39.9019 93.5919 39.869 93.7846 39.869ZM97.7032 40.7105V39.6041H99.5696V39.0379H97.0664V42.6741H97.7032V41.2819H99.359V40.7105H97.7032ZM102.588 42.6741H102.005V42.3209C101.907 42.4455 101.784 42.5425 101.637 42.6118C101.49 42.6776 101.332 42.7105 101.162 42.7105C100.813 42.7105 100.537 42.6083 100.334 42.404C100.135 42.1962 100.035 41.8897 100.035 41.4845V39.9002H100.648V41.3962C100.648 41.6456 100.7 41.8326 100.804 41.9572C100.912 42.0784 101.064 42.139 101.26 42.139C101.479 42.139 101.652 42.0681 101.779 41.9261C101.91 41.7806 101.975 41.5728 101.975 41.3027V39.9002H102.588V42.6741ZM105.667 40.1755C105.468 39.9712 105.203 39.869 104.874 39.869C104.681 39.869 104.508 39.9019 104.354 39.9677C104.201 40.0335 104.073 40.1305 103.972 40.2586V39.9002H103.389V42.6741H104.002V41.2716C104.002 41.0014 104.067 40.7954 104.198 40.6534C104.328 40.508 104.506 40.4352 104.732 40.4352C104.931 40.4352 105.084 40.4976 105.192 40.6222C105.3 40.7434 105.354 40.9253 105.354 41.1677V42.6741H105.966V41.0845C105.966 40.6828 105.866 40.3798 105.667 40.1755ZM109.329 38.8197V42.6741H108.741V42.3157C108.64 42.4473 108.514 42.546 108.364 42.6118C108.217 42.6776 108.053 42.7105 107.874 42.7105C107.622 42.7105 107.395 42.6516 107.193 42.5338C106.994 42.4161 106.837 42.2499 106.723 42.0352C106.608 41.817 106.551 41.5676 106.551 41.2871C106.551 41.0066 106.608 40.759 106.723 40.5443C106.837 40.3296 106.994 40.1634 107.193 40.0456C107.395 39.9279 107.622 39.869 107.874 39.869C108.047 39.869 108.205 39.9002 108.349 39.9625C108.493 40.0249 108.615 40.1184 108.716 40.243V38.8197H109.329ZM107.947 42.1546C108.094 42.1546 108.227 42.12 108.344 42.0507C108.462 41.978 108.555 41.8759 108.623 41.7443C108.692 41.6127 108.726 41.4603 108.726 41.2871C108.726 41.114 108.692 40.9616 108.623 40.83C108.555 40.6984 108.462 40.598 108.344 40.5287C108.227 40.456 108.094 40.4196 107.947 40.4196C107.8 40.4196 107.668 40.456 107.55 40.5287C107.433 40.598 107.34 40.6984 107.271 40.83C107.203 40.9616 107.168 41.114 107.168 41.2871C107.168 41.4603 107.203 41.6127 107.271 41.7443C107.34 41.8759 107.433 41.978 107.55 42.0507C107.668 42.12 107.8 42.1546 107.947 42.1546ZM66.471 32.6319C66.044 32.5758 65.5572 32.8265 64.9637 33.1322C63.7756 33.7442 62.1602 34.5762 59.7417 33.6073C55.4755 31.8982 55.4887 24.8125 60.1436 23.4576C61.3161 23.1164 62.5852 23.2199 63.6339 23.7202C64.3061 24.0409 64.5558 24.3759 64.755 24.6431C65.0284 25.0098 65.2066 25.2488 66.2516 25.1482C65.3657 21.2531 54.9733 21.1508 54.9434 28.4158C54.9302 31.6202 56.7121 33.6981 59.1008 34.4457C61.6635 35.2478 66.2275 34.3419 66.471 32.6319ZM72.6139 24.9208L72.6123 24.92C72.5981 24.913 72.5528 24.8906 72.3841 24.7663H72.384L70.1091 30.2616L75.1301 30.3104L73.0046 25.5115C72.9873 25.4781 72.9728 25.4497 72.9602 25.4251C72.8856 25.2791 72.8791 25.2663 72.7621 25.1226C72.6415 24.9744 72.6258 24.9391 72.6209 24.9281C72.6199 24.9259 72.6194 24.9247 72.6186 24.9238C72.618 24.9232 72.6174 24.9227 72.6165 24.9221C72.6158 24.9217 72.615 24.9213 72.6139 24.9208ZM68.9276 33.0754C68.5628 34.0745 68.376 34.5859 67.5739 34.5156H67.5742L72.1782 23.3526C72.2007 23.3118 72.2242 23.2649 72.2491 23.2149C72.4593 22.7941 72.7781 22.1558 73.5677 23.1546L78.6933 34.5863L77.2448 34.5582C76.9483 33.9955 76.6792 33.4183 76.412 32.8453L76.4119 32.8451L76.4118 32.8448L76.4117 32.8446L76.4115 32.8443L76.4114 32.8441L76.4113 32.8438L76.4112 32.8435L76.411 32.8433L76.4109 32.843L76.4109 32.8429L76.4108 32.8428C76.1351 32.2516 75.8615 31.6649 75.5621 31.1033L69.774 31.0937C69.3636 31.8815 69.1207 32.5467 68.9277 33.0754L68.9276 33.0754ZM107.267 4.95277L107.267 5.8552C107.267 6.5333 107.267 7.29458 107.267 8.40439C107.267 8.72885 107.268 9.04221 107.269 9.3447L107.269 9.34947C107.284 14.0967 107.291 16.1626 103.41 16.385C101.647 16.385 100.047 15.0939 100.018 12.694C99.9988 11.1087 100.005 9.46692 100.011 7.73643V7.73595V7.73547V7.73497V7.73447V7.73396V7.73345V7.73292V7.73238V7.73184V7.73129V7.73072C100.015 6.83023 100.018 5.90572 100.018 4.95266L98.4884 4.95277C98.5409 6.53156 98.4752 7.99767 98.4157 9.32631C98.2111 13.8967 98.0793 16.8406 103.077 17.1498C108.324 17.1653 108.236 14.3487 108.073 9.15705C108.07 9.07305 108.068 8.98842 108.065 8.90317V4.95275C108.065 4.88526 107.923 4.9014 107.726 4.92364C107.589 4.93916 107.426 4.95765 107.267 4.95277ZM103.573 34.7451L102.077 34.7597V34.7596L102.033 23.8737L97.491 23.8559C97.5083 22.7663 97.491 22.9689 97.491 22.9689C98.1351 22.9964 101.39 22.9321 102.386 22.9341C102.652 22.9346 103.065 22.924 103.552 22.9115C105.143 22.8706 106.835 22.9689 108.098 22.9689L108.129 23.8201L103.622 23.8836L103.573 34.7451ZM88.8473 16.7306L96.429 16.7947V15.8117C95.4727 15.8117 94.5996 15.8236 93.8077 15.8343C92.4258 15.8531 91.2909 15.8685 90.3912 15.8117L90.3723 4.95139L88.8412 4.97448L88.8473 16.7306ZM128.781 34.8731C127.434 34.873 122.384 34.8276 121.052 34.7439L120.989 22.9236L122.478 22.9382L122.527 33.8452L127.351 33.8756C127.957 33.8771 128.141 33.8766 128.342 33.8761L128.414 33.8759C128.503 33.8757 128.603 33.8756 128.748 33.8756L128.781 34.8731ZM122.763 16.7664L124.31 16.7935L124.312 4.94626L122.836 4.95185L122.763 16.7664ZM56.433 16.7728L54.9283 16.7977L54.975 4.93833L56.4641 5.02007L56.433 16.7728ZM92.9978 34.7466L94.5179 34.7307L94.4376 22.9024L92.9687 22.9377L92.9978 34.7466ZM143.885 6.17674V16.97H144.897V7.77269L154.452 17.2331V5.02472H153.554V14.1572L144.077 4.74674L143.885 6.17674ZM25.4616 28.878C28.2214 27.6759 30.4748 25.5288 31.8132 22.8454C31.8303 22.8621 31.8474 22.879 31.8644 22.8959C31.87 22.9015 31.8755 22.907 31.8811 22.9126C35.5076 26.5391 35.377 32.5496 31.5892 36.3373C29.1815 38.7451 25.8756 39.6751 22.8548 39.1017C25.2154 36.1576 26.0843 32.4121 25.4616 28.878ZM25.1083 27.3955C27.411 26.0817 29.0973 23.8805 29.6523 21.2848C27.0175 19.9285 23.8209 19.9433 21.0858 21.3069C21.3684 21.5446 21.6432 21.7964 21.9091 22.0624C23.4518 23.605 24.5182 25.4436 25.1083 27.3955ZM19.9042 22.0015C20.3507 22.3209 20.7776 22.6817 21.1795 23.0836C22.5861 24.4901 23.4883 26.2032 23.8811 27.9869C22.7327 28.4454 21.4725 28.6987 20.1505 28.6987C18.6038 28.6987 17.1417 28.352 15.8443 27.7355C16.2758 26.0865 17.1478 24.5128 18.4563 23.2044C18.9097 22.751 19.395 22.3499 19.9042 22.0015ZM19.9993 20.4878C22.9998 18.7222 26.5658 18.2848 29.8465 19.1756C29.7154 14.1562 25.4245 10.1259 20.1505 10.1259C15.1029 10.1259 10.9559 13.8175 10.4941 18.5347C13.7347 17.9275 17.1647 18.5785 19.9993 20.4878ZM10.573 20.8872C13.1617 19.7848 16.1937 19.9302 18.7791 21.3041C18.3109 21.6579 17.8615 22.0482 17.4348 22.475C16.1137 23.796 15.142 25.334 14.5195 26.9743C12.4532 25.5612 10.9903 23.3911 10.573 20.8872ZM7.75617 19.3741C7.62868 18.6494 7.56219 17.9036 7.56219 17.1423C7.56219 10.0761 13.2905 4.34772 20.3568 4.34772C27.4231 4.34772 33.1514 10.0761 33.1514 17.1423C33.1514 18.2539 33.0096 19.3323 32.7432 20.3606C33.7412 20.9211 34.6799 21.6259 35.529 22.475C40.5256 27.4716 40.5256 35.5727 35.529 40.5693C31.1284 44.9699 24.3196 45.4948 19.3446 42.1439C14.4404 45.0296 8.02536 44.3672 3.81483 40.1566C-1.18177 35.16 -1.18177 27.059 3.81483 22.0624C4.98494 20.8923 6.3253 19.9962 7.75617 19.3741ZM16.1543 39.0778C13.3099 39.4194 10.2888 38.4588 8.04655 36.2165C4.25881 32.4288 4.12815 26.4183 7.75471 22.7917C8.00909 22.5374 8.27519 22.3015 8.55144 22.084C9.6574 24.723 11.6224 26.9127 14.0967 28.3034C13.1538 31.9456 13.8397 35.9223 16.1543 39.0778ZM19.7193 37.8721C19.1663 37.5235 18.6445 37.1093 18.1644 36.6292C16.1136 34.5784 15.2643 31.7653 15.5984 29.0228C17.0693 29.6125 18.6752 29.9369 20.3568 29.9369C21.6533 29.9369 22.9047 29.7441 24.084 29.3855C24.2676 31.9721 23.4018 34.578 21.4714 36.5084C20.9346 37.0452 20.3456 37.4996 19.7193 37.8721Z" fill="#626263"/>
</svg>
