<svg width="80" height="61" viewBox="0 0 80 61" fill="none" xmlns="http://www.w3.org/2000/svg">
<path d="M37.7849 9.02448V8.5681H37.5009V9.02448H37.2763V8.5681H36.7129L36.7623 8.28984H36.9102C36.917 8.29083 36.9249 8.29145 36.9329 8.29145C36.9739 8.29145 37.0112 8.27572 37.0391 8.24998L37.039 8.2501C37.0637 8.22423 37.0789 8.1892 37.0789 8.15058C37.0789 8.14823 37.0789 8.14588 37.0788 8.14365V8.14402V6.95744C37.0797 6.95076 37.08 6.94296 37.08 6.93504C37.08 6.88652 37.0625 6.84208 37.0334 6.80779L37.0337 6.80804C36.9894 6.77152 36.9321 6.74949 36.8697 6.74949C36.8625 6.74949 36.8554 6.74974 36.8483 6.75036L36.8492 6.75023H36.7141V6.5101H37.276V6.05371H37.4931V6.5101H37.7771V6.05371H38.0018V6.51542L38.0314 6.5174C38.2153 6.52037 38.3852 6.57743 38.527 6.67324L38.5237 6.67114C38.6203 6.75122 38.6812 6.87117 38.6812 7.00547C38.6812 7.02429 38.6799 7.04285 38.6776 7.06105L38.6778 7.05895C38.6712 7.13928 38.6456 7.21256 38.6058 7.27581L38.6069 7.27383C38.5616 7.32273 38.5099 7.36481 38.4532 7.39935L38.45 7.40108L38.3816 7.4423L38.4594 7.45975C38.5441 7.48067 38.6187 7.51545 38.6843 7.56187L38.6822 7.56051C38.7818 7.64035 38.845 7.76203 38.845 7.89856C38.845 7.9071 38.8448 7.91564 38.8443 7.92418V7.92307C38.8468 7.94188 38.8481 7.96379 38.8481 7.98595C38.8481 8.15355 38.7692 8.30271 38.6466 8.39802L38.6453 8.39889C38.5255 8.48058 38.38 8.53369 38.2231 8.5452L38.2202 8.54532C38.1944 8.54953 38.1638 8.55263 38.1325 8.55374H38.1313C38.1027 8.55535 38.071 8.55733 38.0377 8.56055L38.0091 8.56352V9.02436L37.7849 9.02448ZM37.7028 7.61386C37.6055 7.61386 37.5239 7.61733 37.5239 7.61733L37.4933 7.61869V8.29739H37.5251C37.5251 8.29739 37.7161 8.29739 37.8459 8.28959C37.97 8.2855 38.0864 8.25642 38.1915 8.20727L38.186 8.2095C38.2775 8.16791 38.3399 8.0773 38.3399 7.97209C38.3399 7.96491 38.3396 7.95785 38.339 7.9508V7.95166C38.339 7.9503 38.339 7.94857 38.339 7.94696C38.339 7.83679 38.274 7.74173 38.1803 7.69828L38.1786 7.69754C38.0837 7.65013 37.9722 7.62092 37.8543 7.6172H37.8531C37.8044 7.61473 37.7515 7.61386 37.7026 7.61386H37.7028ZM37.7151 6.76558C37.6226 6.76558 37.5302 6.77326 37.5302 6.77326L37.5004 6.77573L37.509 7.39043L37.5386 7.39204C37.5386 7.39204 37.5968 7.39563 37.6676 7.39563C37.7032 7.39563 37.742 7.39464 37.778 7.39204C37.8914 7.38697 37.9971 7.358 38.0915 7.31022L38.087 7.3122C38.1703 7.26467 38.2256 7.17642 38.2256 7.07516C38.2256 7.07108 38.2254 7.06712 38.2253 7.06303V7.06365C38.2191 6.93863 38.132 6.83552 38.0155 6.80581L38.0135 6.80544C37.9254 6.78019 37.8242 6.76571 37.7195 6.76571C37.7179 6.76571 37.7162 6.76571 37.7146 6.76571H37.7148L37.7151 6.76558Z" fill="#626263"/>
<path d="M10.8849 38.8039V36.1963C10.8849 35.339 10.6825 34.7516 10.2777 34.4341C9.8808 34.1166 9.01162 33.9579 7.67014 33.9579H2.1812V41.0542H7.67014C8.98781 41.0542 9.85302 40.8915 10.2658 40.566C10.6785 40.2406 10.8849 39.6532 10.8849 38.8039ZM1.20486 49.8056C0.665639 49.8056 0.228516 49.3684 0.228516 48.8292V33.7382C0.228516 32.8206 0.972448 32.0766 1.89013 32.0766H7.69396C9.68633 32.0766 11.0556 32.3743 11.8017 32.9696C12.5558 33.557 12.9329 34.6088 12.9329 36.1249V38.8039C12.9329 40.3597 12.5598 41.4352 11.8136 42.0305C11.0754 42.6259 9.7022 42.9235 7.69396 42.9235H2.1812V48.8292C2.1812 49.3684 1.74408 49.8056 1.20486 49.8056Z" fill="#626263"/>
<path d="M18.2903 49.8056C17.6785 49.8056 17.1826 49.3096 17.1826 48.6978V33.0411C17.1826 32.5084 17.6144 32.0766 18.147 32.0766C18.6796 32.0766 19.1114 32.5084 19.1114 33.0411V47.9481H28.2319C28.7448 47.9481 29.1606 48.3639 29.1606 48.8768C29.1606 49.3898 28.7448 49.8056 28.2319 49.8056H18.2903Z" fill="#626263"/>
<path d="M31.6839 33.0649C31.6839 32.5191 32.1263 32.0766 32.6721 32.0766C33.2179 32.0766 33.6604 32.5191 33.6604 33.0649V43.7094C33.6604 44.8524 33.7199 45.6502 33.839 46.1026C33.966 46.5551 34.1803 46.9202 34.4819 47.198C34.7994 47.4838 35.1765 47.6862 35.613 47.8053C36.0576 47.9164 36.8196 47.9719 37.8991 47.9719H39.7565C40.844 47.9719 41.61 47.9164 42.0545 47.8053C42.499 47.6862 42.88 47.4838 43.1975 47.198C43.4912 46.9281 43.6976 46.567 43.8167 46.1145C43.9358 45.6621 43.9953 44.8604 43.9953 43.7094V33.0649C43.9953 32.5191 44.4377 32.0766 44.9835 32.0766C45.5293 32.0766 45.9718 32.5191 45.9718 33.0649V43.9475C45.9718 46.2098 45.5233 47.7894 44.6263 48.6863C43.7373 49.5754 42.1617 50.0199 39.8994 50.0199H37.7562C35.494 50.0199 33.9144 49.5754 33.0174 48.6863C32.1284 47.7894 31.6839 46.2098 31.6839 43.9475V33.0649Z" fill="#626263"/>
<path d="M49.5904 33.9579C49.071 33.9579 48.6498 33.5367 48.6498 33.0172C48.6498 32.4978 49.071 32.0766 49.5904 32.0766H60.9851C61.5046 32.0766 61.9257 32.4978 61.9257 33.0172C61.9257 33.5367 61.5046 33.9579 60.9851 33.9579H56.2581V48.8233C56.2581 49.3658 55.8184 49.8056 55.2759 49.8056C54.7333 49.8056 54.2936 49.3658 54.2936 48.8233V33.9579H49.5904Z" fill="#626263"/>
<path d="M72.2716 33.7078H71.1762C69.9299 33.7078 69.0489 33.7753 68.5329 33.9102C68.0169 34.0452 67.5724 34.2714 67.1994 34.5889C66.8501 34.8906 66.604 35.2993 66.4612 35.8153C66.3183 36.3233 66.2468 37.2004 66.2468 38.4467V43.4712C66.2468 44.7095 66.3183 45.5827 66.4612 46.0907C66.604 46.5908 66.8501 46.9916 67.1994 47.2933C67.5724 47.6108 68.0169 47.837 68.5329 47.9719C69.0489 48.1069 69.9299 48.1744 71.1762 48.1744H72.2716C73.5178 48.1744 74.4029 48.1069 74.9268 47.9719C75.4506 47.837 75.8991 47.6108 76.2722 47.2933C76.6135 46.9996 76.8517 46.6067 76.9866 46.1145C77.1295 45.6224 77.2009 44.7413 77.2009 43.4712V38.4228C77.2009 37.1766 77.1295 36.2995 76.9866 35.7915C76.8437 35.2755 76.5976 34.8667 76.2484 34.5651C75.8833 34.2555 75.4427 34.0372 74.9268 33.9102C74.4108 33.7753 73.5257 33.7078 72.2716 33.7078ZM64.2227 37.9347C64.2227 35.6724 64.691 34.0968 65.6277 33.2078C66.5643 32.3108 68.2273 31.8623 70.6166 31.8623H72.855C75.2681 31.8623 76.935 32.3028 77.8558 33.1839C78.7845 34.065 79.2488 35.6486 79.2488 37.9347V43.9475C79.2488 46.2177 78.7766 47.7973 77.832 48.6863C76.8953 49.5754 75.2363 50.0199 72.855 50.0199H70.6166C68.2273 50.0199 66.5643 49.5754 65.6277 48.6863C64.691 47.7973 64.2227 46.2177 64.2227 43.9475V37.9347Z" fill="#626263"/>
<path fill-rule="evenodd" clip-rule="evenodd" d="M37.5425 1.0511C37.6612 0.923202 37.8598 0.911973 37.9922 1.02567C41.7367 4.24059 43.9785 9.5428 42.9941 14.9096C44.1752 15.7109 44.8087 16.64 45.0094 17.7564C45.2123 18.8851 44.9633 20.1604 44.4956 21.6103C44.4515 21.747 44.323 21.8385 44.1795 21.8354C44.036 21.8324 43.9114 21.7356 43.8732 21.5972C43.5754 20.5208 43.2426 19.7549 42.8527 19.2526C42.5464 18.858 42.2076 18.6284 41.8119 18.5358C41.7429 18.6801 41.6712 18.8241 41.5968 18.9678L41.5199 19.1163L41.3542 19.14C40.6711 19.2376 40.0707 19.3004 39.5079 19.3362L39.2173 21.781C39.1979 21.9445 39.0593 22.0676 38.8947 22.0676H36.7594C36.5948 22.0676 36.4562 21.9445 36.4368 21.781L36.14 19.2852C35.782 19.2603 35.4043 19.2315 34.9972 19.2004C34.7523 19.1818 34.4968 19.1623 34.2286 19.1424L34.0171 19.1266L33.9464 18.9267C33.895 18.7814 33.8449 18.6373 33.7961 18.4942C33.6079 18.4998 33.4506 18.533 33.3084 18.6C33.1562 18.6718 33.0019 18.7915 32.8405 18.9946C32.5082 19.4125 32.1713 20.1486 31.778 21.4209C31.7364 21.5557 31.6123 21.6483 31.4712 21.6498C31.33 21.6514 31.204 21.5616 31.1594 21.4277C30.596 19.7374 30.4318 18.4424 30.7313 17.3784C31.0243 16.3373 31.7428 15.5782 32.8035 14.9024C32.4135 12.9353 32.3579 11.1513 32.6892 9.42953C33.2323 6.6064 34.8059 3.99815 37.5425 1.0511ZM32.9502 15.5837C32.0852 16.1719 31.5736 16.7844 31.3569 17.5544C31.1625 18.2452 31.1932 19.1034 31.4865 20.2485C31.7629 19.501 32.0349 18.9636 32.3318 18.5902C32.5432 18.3243 32.7727 18.1342 33.0313 18.0122C33.2116 17.9273 33.3965 17.8799 33.5852 17.8582C33.3318 17.0702 33.1193 16.314 32.9502 15.5837ZM36.7995 19.3274L37.048 21.4177H38.6061L38.8499 19.3668C38.1658 19.3866 37.513 19.3681 36.7995 19.3274ZM38.9275 18.7143C38.1951 18.7393 37.5015 18.7185 36.7215 18.6717L36.3361 15.4298H39.3179L38.9275 18.7143ZM39.586 18.6799L40.0064 15.1432C40.0174 15.051 39.9884 14.9585 39.9267 14.8891C39.865 14.8197 39.7766 14.7799 39.6838 14.7799H35.9703C35.8774 14.7799 35.789 14.8197 35.7274 14.8891C35.6657 14.9585 35.6367 15.051 35.6476 15.1432L36.0619 18.6281C35.7418 18.6054 35.4041 18.5797 35.0417 18.5521C34.8637 18.5385 34.6797 18.5245 34.4889 18.5101C33.2554 14.9653 32.8254 12.1613 33.3273 9.55229C33.8246 6.96748 35.2453 4.52918 37.8046 1.72581C42.1084 5.59538 44.1919 12.3706 41.0958 18.52C40.5458 18.5954 40.0519 18.6472 39.586 18.6799ZM42.083 17.9354C42.583 18.0816 43.0067 18.3912 43.366 18.8541C43.6767 19.2544 43.9402 19.7698 44.1717 20.3952C44.4165 19.4231 44.5 18.5957 44.3698 17.8713C44.2177 17.0251 43.7666 16.2837 42.8489 15.603C42.665 16.383 42.4115 17.1625 42.083 17.9354Z" fill="#626263"/>
<path fill-rule="evenodd" clip-rule="evenodd" d="M38.0129 22.625C38.1411 22.625 38.245 22.7289 38.245 22.8571V24.9923C38.245 25.1205 38.1411 25.2244 38.0129 25.2244C37.8847 25.2244 37.7808 25.1205 37.7808 24.9923V22.8571C37.7808 22.7289 37.8847 22.625 38.0129 22.625ZM37.2702 22.9499C37.3984 22.9499 37.5023 23.0538 37.5023 23.182V25.4565C37.5023 25.5847 37.3984 25.6886 37.2702 25.6886C37.142 25.6886 37.0381 25.5847 37.0381 25.4565V23.182C37.0381 23.0538 37.142 22.9499 37.2702 22.9499ZM38.802 22.9499C38.9302 22.9499 39.0341 23.0538 39.0341 23.182V25.4565C39.0341 25.5847 38.9302 25.6886 38.802 25.6886C38.6738 25.6886 38.5699 25.5847 38.5699 25.4565V23.182C38.5699 23.0538 38.6738 22.9499 38.802 22.9499Z" fill="#626263"/>
<path fill-rule="evenodd" clip-rule="evenodd" d="M8.09235 53.4932V54.3654H8.89639V53.4932H8.09235ZM8.09235 54.9854V58.7555H8.89639V54.9854H8.09235ZM0.228516 53.6373V54.3254L2.0705 54.351C2.4311 54.351 2.73566 54.4303 2.98418 54.5889C3.23758 54.7475 3.43006 54.9637 3.56163 55.2377C3.69807 55.5116 3.76629 55.8288 3.76629 56.1892C3.76629 56.54 3.70051 56.8548 3.56894 57.1336C3.43737 57.4123 3.24489 57.6334 2.99149 57.7968C2.74297 57.9602 2.43597 58.0419 2.0705 58.0419H1.04718V54.8802H0.228516V58.7555H2.0705C2.58216 58.7555 3.0256 58.6498 3.40082 58.4383C3.78091 58.2269 4.07573 57.9289 4.28527 57.5445C4.4948 57.16 4.59957 56.7083 4.59957 56.1892C4.59957 55.7183 4.50455 55.2905 4.3145 54.9061C4.12446 54.5168 3.84183 54.2092 3.46661 53.9834C3.09626 53.7527 2.63089 53.6373 2.0705 53.6373H0.228516ZM14.1167 58.7916C13.7707 58.7916 13.4662 58.7027 13.203 58.5248C12.9448 58.347 12.7401 58.114 12.589 57.8256C12.4429 57.5324 12.3698 57.2153 12.3698 56.8741C12.3698 56.5184 12.4453 56.1916 12.5964 55.8937C12.7474 55.5957 12.9545 55.3602 13.2177 55.1872C13.4857 55.0094 13.7951 54.9205 14.146 54.9205C14.453 54.9205 14.721 54.9926 14.95 55.1368C15.1839 55.2809 15.3764 55.4684 15.5274 55.699V54.9854H16.2365V58.6474C16.2365 59.0126 16.1463 59.3226 15.966 59.5773C15.7906 59.832 15.5494 60.0267 15.2424 60.1612C14.9354 60.2958 14.5894 60.3631 14.2044 60.3631C13.7805 60.3631 13.4272 60.291 13.1446 60.1468C12.8668 60.0026 12.6329 59.8056 12.4429 59.5557L12.896 59.1376C13.0422 59.3394 13.2298 59.4932 13.4589 59.5989C13.6928 59.7047 13.9413 59.7575 14.2044 59.7575C14.4237 59.7575 14.6259 59.7167 14.8111 59.635C15.0012 59.5581 15.1522 59.438 15.2643 59.2746C15.3764 59.1112 15.4324 58.9021 15.4324 58.6474V58.0707C15.296 58.2966 15.1084 58.4744 14.8696 58.6041C14.6308 58.7291 14.3799 58.7916 14.1167 58.7916ZM14.3799 58.15C14.5407 58.15 14.6942 58.1164 14.8404 58.0491C14.9865 57.977 15.1108 57.8833 15.2131 57.7679C15.3203 57.6526 15.3934 57.53 15.4324 57.4003V56.4127C15.335 56.1724 15.1815 55.9778 14.9719 55.8288C14.7673 55.675 14.5504 55.5981 14.3214 55.5981C14.0875 55.5981 13.8853 55.6606 13.7147 55.7855C13.549 55.9105 13.4199 56.0739 13.3273 56.2757C13.2347 56.4728 13.1884 56.6794 13.1884 56.8957C13.1884 57.1264 13.2396 57.3378 13.3419 57.53C13.4491 57.7175 13.5929 57.8689 13.7732 57.9842C13.9535 58.0947 14.1557 58.15 14.3799 58.15ZM19.9417 53.4932V54.3654H20.7457V53.4932H19.9417ZM19.9417 54.9854V58.7555H20.7457V54.9854H19.9417ZM26.58 58.5609C26.4777 58.6089 26.3364 58.6642 26.1561 58.7267C25.9758 58.7844 25.7833 58.8132 25.5786 58.8132C25.3252 58.8132 25.106 58.7459 24.9208 58.6114C24.7405 58.4768 24.6503 58.2581 24.6503 57.9554V55.5981H24.146V54.9854H24.6503V53.7455H25.4544V54.9854H26.2877V55.5981H25.4544V57.7031C25.4641 57.8376 25.5055 57.9361 25.5786 57.9986C25.6566 58.0563 25.7516 58.0851 25.8637 58.0851C25.9758 58.0851 26.083 58.0659 26.1853 58.0274C26.2877 57.989 26.3632 57.9578 26.4119 57.9337L26.58 58.5609ZM29.8049 57.0254C29.6684 57.2032 29.6002 57.4123 29.6002 57.6526C29.6002 57.8737 29.6563 58.0731 29.7683 58.2509C29.8804 58.4287 30.0363 58.5705 30.2361 58.6762C30.4359 58.7772 30.6625 58.8276 30.9159 58.8276C31.1791 58.8276 31.4398 58.7699 31.698 58.6546C31.9563 58.5393 32.1683 58.3759 32.334 58.1644L32.3559 58.3807C32.3705 58.4864 32.4192 58.5825 32.5021 58.669C32.5898 58.7507 32.7214 58.7916 32.8968 58.7916C32.9358 58.7916 32.9845 58.7892 33.043 58.7844C33.1014 58.7796 33.1672 58.7699 33.2403 58.7555V58.1212C33.1624 58.1164 33.1063 58.0947 33.0722 58.0563C33.043 58.0178 33.0284 57.953 33.0284 57.8616V56.4559C33.0284 55.9658 32.8797 55.5885 32.5825 55.3242C32.2901 55.0551 31.8881 54.9205 31.3764 54.9205C31.0938 54.9205 30.8233 54.9637 30.5651 55.0502C30.3117 55.1319 30.0583 55.2545 29.8049 55.4179L30.0753 55.9513C30.2849 55.812 30.4871 55.7062 30.682 55.6342C30.8769 55.5621 31.0792 55.526 31.2887 55.526C31.5908 55.526 31.8223 55.6005 31.9831 55.7495C32.1439 55.8985 32.2243 56.1051 32.2243 56.3694V56.6073C32.0879 56.5593 31.9295 56.5232 31.7492 56.4992C31.5738 56.4704 31.4008 56.4559 31.2302 56.4559C30.9086 56.4559 30.6235 56.5064 30.375 56.6073C30.1314 56.7034 29.9413 56.8428 29.8049 57.0254ZM32.2243 57.53C32.2243 57.6406 32.161 57.7583 32.0343 57.8833C31.9319 57.989 31.8004 58.0755 31.6396 58.1428C31.4787 58.2101 31.3131 58.2437 31.1425 58.2437C30.8891 58.2437 30.6942 58.1764 30.5578 58.0419C30.4262 57.9025 30.3604 57.7511 30.3604 57.5877C30.3604 57.3907 30.4505 57.2345 30.6308 57.1191C30.816 56.999 31.0548 56.9389 31.3472 56.9389C31.6444 56.9389 31.9368 56.9918 32.2243 57.0975V57.53ZM36.7522 53.4932H37.5562V57.667C37.5562 57.8592 37.5855 57.9818 37.6439 58.0347C37.7024 58.0875 37.7755 58.114 37.8632 58.114C37.9607 58.114 38.0533 58.1043 38.141 58.0851C38.2287 58.0659 38.3018 58.0419 38.3603 58.013L38.4772 58.6402C38.3603 58.6882 38.2214 58.7291 38.0606 58.7627C37.8998 58.7964 37.756 58.8132 37.6293 58.8132C37.3564 58.8132 37.142 58.7387 36.9861 58.5897C36.8302 58.4359 36.7522 58.2245 36.7522 57.9554V53.4932ZM44.8912 53.4932H45.6429L44.4117 56.6269H46.1231L45.5279 55.0374L45.9025 54.0707L47.7091 58.6198H46.8386L46.2854 57.2262H44.2642L43.7184 58.6198H42.8405L44.8912 53.4932ZM52.3341 58.692C52.0096 58.692 51.7022 58.6391 51.4121 58.5332C51.1219 58.4273 50.8736 58.2732 50.667 58.071L50.9695 57.5367C51.1908 57.7293 51.4121 57.8689 51.6334 57.9555C51.8547 58.0422 52.0784 58.0855 52.3046 58.0855C52.5308 58.0855 52.7153 58.0446 52.8579 57.9627C53.0005 57.8761 53.0718 57.7509 53.0718 57.5873C53.0718 57.4717 53.0349 57.3827 52.9611 57.3201C52.8874 57.2575 52.7792 57.207 52.6366 57.1685C52.4989 57.13 52.3317 57.0818 52.135 57.024C51.8596 56.9422 51.6284 56.858 51.4416 56.7713C51.2547 56.6799 51.1145 56.5691 51.0211 56.4392C50.9277 56.3092 50.881 56.1431 50.881 55.941C50.881 55.5751 51.0211 55.2911 51.3014 55.0889C51.5817 54.8819 51.9481 54.7784 52.4005 54.7784C52.6808 54.7784 52.939 54.8218 53.1751 54.9084C53.416 54.9902 53.6275 55.1202 53.8095 55.2983L53.4628 55.8254C53.1284 55.527 52.7595 55.3777 52.3563 55.3777C52.1792 55.3777 52.0145 55.4114 51.862 55.4788C51.7145 55.5462 51.6407 55.6714 51.6407 55.8543C51.6407 56.0083 51.7071 56.1191 51.8399 56.1865C51.9727 56.2538 52.1694 56.3261 52.43 56.4031C52.7251 56.4897 52.9784 56.5764 53.1898 56.663C53.4062 56.7449 53.5709 56.8532 53.6841 56.9879C53.8021 57.1179 53.8611 57.2984 53.8611 57.5295C53.8611 57.8953 53.7209 58.1818 53.4406 58.3887C53.1603 58.5909 52.7915 58.692 52.3341 58.692ZM57.8017 58.5332C58.0919 58.6391 58.3993 58.692 58.7238 58.692C59.1812 58.692 59.55 58.5909 59.8303 58.3887C60.1106 58.1818 60.2508 57.8953 60.2508 57.5295C60.2508 57.2984 60.1918 57.1179 60.0737 56.9879C59.9606 56.8532 59.7959 56.7449 59.5795 56.663C59.368 56.5764 59.1148 56.4897 58.8197 56.4031C58.5591 56.3261 58.3624 56.2538 58.2296 56.1865C58.0968 56.1191 58.0304 56.0083 58.0304 55.8543C58.0304 55.6714 58.1042 55.5462 58.2517 55.4788C58.4042 55.4114 58.5689 55.3777 58.7459 55.3777C59.1492 55.3777 59.518 55.527 59.8524 55.8254L60.1991 55.2983C60.0172 55.1202 59.8057 54.9902 59.5647 54.9084C59.3287 54.8218 59.0705 54.7784 58.7902 54.7784C58.3378 54.7784 57.9714 54.8819 57.6911 55.0889C57.4108 55.2911 57.2706 55.5751 57.2706 55.941C57.2706 56.1431 57.3173 56.3092 57.4108 56.4392C57.5042 56.5691 57.6444 56.6799 57.8312 56.7713C58.0181 56.858 58.2493 56.9422 58.5247 57.024C58.7214 57.0818 58.8886 57.13 59.0263 57.1685C59.1689 57.207 59.2771 57.2575 59.3508 57.3201C59.4246 57.3827 59.4615 57.4717 59.4615 57.5873C59.4615 57.7509 59.3902 57.8761 59.2476 57.9627C59.1049 58.0446 58.9205 58.0855 58.6943 58.0855C58.4681 58.0855 58.2443 58.0422 58.023 57.9555C57.8017 57.8689 57.5804 57.7293 57.3591 57.5367L57.0567 58.071C57.2633 58.2732 57.5116 58.4273 57.8017 58.5332ZM64.4422 58.4248C64.1422 58.2467 63.9087 58.0109 63.7414 57.7172C63.5742 57.4188 63.4906 57.0938 63.4906 56.7424C63.4906 56.3862 63.5742 56.0589 63.7414 55.7604C63.9087 55.462 64.1422 55.2237 64.4422 55.0456C64.7422 54.8675 65.0938 54.7784 65.4971 54.7784C65.9003 54.7784 66.2495 54.8699 66.5445 55.0528C66.8396 55.2309 67.0658 55.4668 67.2232 55.7604C67.3855 56.0541 67.4666 56.3694 67.4666 56.7063C67.4666 56.8267 67.4592 56.923 67.4445 56.9952H64.3537C64.3685 57.2166 64.4299 57.4116 64.5381 57.58C64.6512 57.7437 64.7914 57.8737 64.9586 57.97C65.1307 58.0614 65.3176 58.1071 65.5192 58.1071C65.7356 58.1071 65.9397 58.0542 66.1315 57.9483C66.3232 57.8424 66.456 57.7028 66.5298 57.5295L67.2232 57.7244C67.0904 58.0085 66.8691 58.2419 66.5593 58.4248C66.2544 58.603 65.8979 58.692 65.4897 58.692C65.0914 58.692 64.7422 58.603 64.4422 58.4248ZM66.6626 56.4681C66.6429 56.2514 66.579 56.0613 66.4708 55.8976C66.3626 55.7291 66.2224 55.5992 66.0503 55.5077C65.8831 55.4114 65.6962 55.3633 65.4897 55.3633C65.2881 55.3633 65.1012 55.4114 64.9291 55.5077C64.7619 55.5992 64.6242 55.7291 64.516 55.8976C64.4078 56.0613 64.3463 56.2514 64.3316 56.4681H66.6626ZM72.5774 58.5909C72.7594 58.5283 72.902 58.473 73.0053 58.4248L72.8356 57.7967C72.7864 57.8207 72.7102 57.852 72.6069 57.8905C72.5037 57.929 72.3955 57.9483 72.2824 57.9483C72.1693 57.9483 72.0734 57.9194 71.9947 57.8616C71.9209 57.7991 71.8791 57.7004 71.8693 57.5656V55.4572H72.7102V54.8434H71.8693V53.6015H71.0579V54.8434H70.5489V55.4572H71.0579V57.8183C71.0579 58.1216 71.1488 58.3406 71.3308 58.4754C71.5177 58.6102 71.739 58.6776 71.9947 58.6776C72.2012 58.6776 72.3955 58.6487 72.5774 58.5909ZM77.7056 58.692C77.381 58.692 77.0736 58.6391 76.7835 58.5332C76.4933 58.4273 76.245 58.2732 76.0384 58.071L76.3409 57.5367C76.5622 57.7293 76.7835 57.8689 77.0048 57.9555C77.2261 58.0422 77.4498 58.0855 77.676 58.0855C77.9023 58.0855 78.0867 58.0446 78.2293 57.9627C78.3719 57.8761 78.4432 57.7509 78.4432 57.5873C78.4432 57.4717 78.4063 57.3827 78.3326 57.3201C78.2588 57.2575 78.1506 57.207 78.008 57.1685C77.8703 57.13 77.7031 57.0818 77.5064 57.024C77.231 56.9422 76.9999 56.858 76.813 56.7713C76.6261 56.6799 76.486 56.5691 76.3925 56.4392C76.2991 56.3092 76.2524 56.1431 76.2524 55.941C76.2524 55.5751 76.3925 55.2911 76.6728 55.0889C76.9531 54.8819 77.3195 54.7784 77.7719 54.7784C78.0523 54.7784 78.3104 54.8218 78.5465 54.9084C78.7875 54.9902 78.9989 55.1202 79.1809 55.2983L78.8342 55.8254C78.4998 55.527 78.1309 55.3777 77.7277 55.3777C77.5506 55.3777 77.3859 55.4114 77.2335 55.4788C77.0859 55.5462 77.0122 55.6714 77.0122 55.8543C77.0122 56.0083 77.0785 56.1191 77.2113 56.1865C77.3441 56.2538 77.5408 56.3261 77.8014 56.4031C78.0965 56.4897 78.3498 56.5764 78.5612 56.663C78.7776 56.7449 78.9424 56.8532 79.0555 56.9879C79.1735 57.1179 79.2325 57.2984 79.2325 57.5295C79.2325 57.8953 79.0923 58.1818 78.812 58.3887C78.5317 58.5909 78.1629 58.692 77.7056 58.692Z" fill="#626263"/>
<path fill-rule="evenodd" clip-rule="evenodd" d="M37.7805 9.39555C38.8316 9.39555 39.6836 8.54348 39.6836 7.4924C39.6836 6.44132 38.8316 5.58925 37.7805 5.58925C36.7294 5.58925 35.8773 6.44132 35.8773 7.4924C35.8773 8.54348 36.7294 9.39555 37.7805 9.39555ZM37.7805 9.95257C39.1392 9.95257 40.2407 8.85111 40.2407 7.4924C40.2407 6.13368 39.1392 5.03223 37.7805 5.03223C36.4218 5.03223 35.3203 6.13368 35.3203 7.4924C35.3203 8.85111 36.4218 9.95257 37.7805 9.95257Z" fill="#626263"/>
</svg>
